<svg height="366pt" viewBox="0 0 366.36515 366" width="366pt" xmlns="http://www.w3.org/2000/svg"><path d="m181.054688 256.273438c42.09375 0 46.425781 9.847656 80.914062 11.832031-4.753906-44.125-60.035156-78.96875-127.699219-78.96875-61.761719 0-113.292969 29.015625-125.4375 67.628906 32.492188 2.265625 37.457031 11.714844 78.636719 11.714844 46.792969 0 46.792969-12.207031 93.585938-12.207031zm0 0" fill="#d3843d"/><path d="m181.054688 280.683594c-46.792969 0-46.792969 12.207031-93.585938 12.207031-42.0625 0-46.414062-9.839844-80.847656-11.832031 5.242187 43.804687 60.332031 78.289062 127.648437 78.289062 61.398438 0 112.648438-28.683594 125.175781-66.964844-32.273437-2.292968-37.308593-11.699218-78.390624-11.699218zm0 0" fill="#d3843d"/><path d="m311.257812 54.871094c-43.277343-43.28125-100.746093-59.304688-137.058593-41.453125 20.734375 23.496093 18.222656 33.847656 47.335937 62.078125 33.574219 32.558594 42.074219 23.796875 75.648438 56.351562 30.964844 30.027344 26.21875 39.855469 51.625 66.742188 23.65625-35.59375 8.503906-97.667969-37.550782-143.71875zm0 0" fill="#d3843d"/><path d="m203.226562 93.804688c-29.914062-29.007813-26.480468-39.160157-49.148437-64.074219-27.109375 34.90625-12.457031 99.625 35.117187 147.199219 44.800782 44.804687 104.765626 60.355468 140.765626 39.386718-24.78125-26.4375-20.347657-36.351562-51.089844-66.160156-33.570313-32.554688-42.070313-23.792969-75.644532-56.351562zm0 0" fill="#d3843d"/><g fill="#66342e"><path d="m181.054688 280.683594c41.082031 0 46.117187 9.40625 78.390624 11.703125 1.953126-5.851563 2.964844-11.976563 2.988282-18.144531-.042969-2.050782-.199219-4.097657-.464844-6.132813-34.488281-1.984375-38.820312-11.835937-80.914062-11.835937-46.792969 0-46.792969 12.207031-93.585938 12.207031-41.175781 0-46.144531-9.449219-78.636719-11.714844-1.796875 5.652344-2.71875 11.546875-2.730469 17.476563.039063 2.28125.210938 4.558593.519532 6.820312 34.433594 1.988281 38.78125 11.828125 80.847656 11.828125 46.792969 0 46.792969-12.207031 93.585938-12.207031zm0 0"/><path d="m67.128906 326.078125c-.976562 0-1.9375-.234375-2.800781-.683594-2.820313-1.464843-5.5-2.996093-8.042969-4.597656-2.84375-1.804687-3.691406-5.574219-1.886718-8.421875 1.796874-2.835938 5.546874-3.6875 8.390624-1.910156 2.257813 1.421875 4.644532 2.785156 7.152344 4.085937 2.992188 1.550781 4.164063 5.234375 2.613282 8.226563-1.050782 2.03125-3.144532 3.300781-5.425782 3.300781zm0 0"/><path d="m134.269531 341.035156c-17.203125.128906-34.316406-2.453125-50.714843-7.65625-3.203126-1.050781-4.949219-4.496094-3.898438-7.699218 1.046875-3.191407 4.480469-4.941407 7.675781-3.90625 15.179688 4.804687 31.019531 7.1875 46.9375 7.058593 31.496094 0 60.5-8.824219 79.574219-24.214843 2.625-2.117188 6.464844-1.703126 8.582031.917968 2.117188 2.625 1.707031 6.464844-.917969 8.582032-21.207031 17.109374-53.003906 26.917968-87.238281 26.917968zm0 0"/><path d="m168.644531 103.699219c-2.738281-.003907-5.136719-1.828125-5.875-4.464844-.757812-2.707031-1.398437-5.378906-1.929687-8.015625-.660156-3.304688 1.484375-6.519531 4.789062-7.179688 3.304688-.664062 6.519532 1.480469 7.179688 4.785157.46875 2.339843 1.039062 4.714843 1.714844 7.121093.902343 3.253907-1 6.625-4.253907 7.527344-.53125.148438-1.078125.222656-1.625.226563zm0 0"/><path d="m288.105469 207.074219c-.125 0-.253907-.003907-.378907-.011719-28.363281-1.75-60.359374-17.851562-85.582031-43.078125-12.433593-12.292969-22.777343-26.53125-30.621093-42.15625-1.488282-3.023437-.246094-6.679687 2.777343-8.167969 3.011719-1.484375 6.660157-.253906 8.15625 2.75 7.257813 14.4375 16.820313 27.589844 28.316407 38.945313 22.832031 22.832031 52.605468 37.976562 77.703124 39.523437 3.363282.214844 5.917969 3.113282 5.703126 6.476563-.199219 3.207031-2.855469 5.707031-6.074219 5.71875zm0 0"/><path d="m348.808594 198.589844c-25.40625-26.882813-20.660156-36.714844-51.625-66.742188-33.574219-32.554687-42.074219-23.792968-75.648438-56.351562-29.113281-28.230469-26.601562-38.582032-47.335937-62.078125-5.742188 2.765625-10.984375 6.460937-15.515625 10.9375-1.648438 1.695312-3.183594 3.488281-4.605469 5.375 22.667969 24.914062 19.234375 35.066406 49.148437 64.074219 33.574219 32.558593 42.074219 23.796874 75.648438 56.355468 30.738281 29.804688 26.304688 39.71875 51.085938 66.160156 7.675781-4.230468 14.15625-10.328124 18.847656-17.730468zm0 0"/></g><path d="m.5625 281.792969c5.71875 47.695312 63.195312 83.65625 133.707031 83.65625 63.390625 0 117.238281-29.253907 130.96875-71.144531l.011719-.019532c2.148438-6.464844 3.257812-13.230468 3.289062-20.042968-.035156-2.050782-.175781-4.097657-.429687-6.136719l-.074219-.648438v-.003906c-2.496094-18.050781-11.441406-34.589844-25.179687-46.558594 15.644531 6.886719 32.507812 10.585938 49.601562 10.886719 14.1875.261719 28.195313-3.253906 40.578125-10.1875l.007813-.007812c4.753906-2.699219 9.132812-6.007813 13.027343-9.84375 2.925782-2.984376 5.546876-6.253907 7.816407-9.765626l.003906-.007812c25.742187-38.734375 9.273437-103.828125-38.316406-151.414062-44.066407-44.066407-104.652344-61.992188-144.070313-42.617188-6.335937 3.066406-12.128906 7.15625-17.136718 12.101562-1.828126 1.871094-3.535157 3.855469-5.109376 5.945313l-.003906.003906c-29.324218 37.757813-13.675781 105.957031 35.628906 155.257813 4.871094 4.859375 9.996094 9.457031 15.347657 13.78125-21.0625-8.015625-43.425781-12.082032-65.960938-11.992188-62.953125 0-118.15625 30.238282-131.261719 71.898438-1.976562 6.246094-2.992187 12.757812-3.007812 19.308594.0351562 2.523437.222656 5.042968.5625 7.546874zm133.707031 71.449219c-59.371093 0-110.042969-28.183594-120.128906-65.429688.238281.027344.484375.050781.722656.078125 2.179688.242187 4.257813.515625 6.195313.824219.285156.046875.546875.097656.828125.144531 1.8125.300781 3.539062.625 5.203125.96875.28125.058594.570312.113281.84375.171875 1.78125.382812 3.503906.78125 5.195312 1.195312.363282.089844.726563.179688 1.089844.273438 1.625.40625 3.234375.816406 4.859375 1.238281 15.734375 4.464844 32.039063 6.582031 48.394531 6.285157 16.332032.300781 32.621094-1.820313 48.332032-6.300782 14.703124-4.21875 29.957031-6.210937 45.25-5.90625 15.300781-.304687 30.558593 1.6875 45.269531 5.90625 1.53125.398438 3.078125.796875 4.652343 1.191406.363282.09375.726563.183594 1.09375.273438 1.671876.414062 3.382813.820312 5.167969 1.210938.214844.046874.445313.089843.667969.136718 1.644531.355469 3.367188.691406 5.164062 1.011719.316407.054687.621094.113281.941407.167969 1.945312.332031 4.003906.636718 6.175781.910156.195312.023438.355469.054688.550781.082031-15.773437 32.601563-63.050781 55.566407-116.46875 55.566407zm172.675781-294.058594c39.984376 39.988281 56.722657 94.699218 40.71875 128.996094-.164062-.1875-.332031-.382813-.492187-.570313-1.617187-1.90625-3.113281-3.742187-4.453125-5.492187-.117188-.152344-.21875-.296876-.332031-.449219-1.273438-1.683594-2.4375-3.300781-3.523438-4.882813-.175781-.257812-.363281-.519531-.535156-.773437-1.109375-1.632813-2.144531-3.234375-3.144531-4.820313-.191406-.304687-.378906-.605468-.566406-.90625-.964844-1.546875-1.90625-3.085937-2.851563-4.636718-8.171875-14.152344-18.394531-27.019532-30.335937-38.179688-11.511719-11.582031-24.675782-21.390625-39.066407-29.105469-13.488281-7.199219-25.816406-16.386719-36.578125-27.246093-11.183594-10.421876-20.742187-22.464844-28.359375-35.71875-.777343-1.28125-1.566406-2.570313-2.371093-3.875l-.613282-.992188c-.867187-1.386719-1.757812-2.796875-2.710937-4.242188-.105469-.160156-.222657-.324218-.328125-.488281-.863282-1.300781-1.78125-2.628906-2.753906-3.996093-.226563-.320313-.445313-.632813-.675782-.953126-1.085937-1.5-2.25-3.050781-3.511718-4.652343-.085938-.109375-.152344-.207031-.242188-.316407 34.875-11.734374 84.972656 5.546876 122.726562 43.300782zm-143.949218-30.515625c2.933594-2.902344 6.214844-5.433594 9.765625-7.535157.105469.125.191406.238282.292969.363282 1.34375 1.636718 2.570312 3.207031 3.710937 4.726562.183594.246094.382813.5.566406.746094 1.144531 1.550781 2.191407 3.046875 3.183594 4.515625.195313.289063.394531.578125.582031.867187.96875 1.453126 1.894532 2.890626 2.78125 4.308594.160156.257813.316406.511719.476563.769532.886719 1.429687 1.757812 2.859374 2.632812 4.300781 8.160157 14.140625 18.371094 26.996093 30.296875 38.148437 11.507813 11.582032 24.675782 21.390625 39.066406 29.105469 13.488282 7.199219 25.816407 16.382813 36.578126 27.242187 11.199218 10.4375 20.773437 22.492188 28.40625 35.761719.628906 1.03125 1.261718 2.070313 1.902343 3.113281.21875.355469.445313.714844.667969 1.070313.445312.722656.898438 1.449219 1.363281 2.183594.273438.429687.558594.867187.839844 1.304687.441406.679688.886719 1.363282 1.347656 2.058594.3125.46875.636719.941406.960938 1.417969.464843.679687.9375 1.367187 1.433593 2.066406.355469.503906.726563 1.015625 1.097657 1.527344.503906.695312 1.027343 1.402343 1.570312 2.117187.40625.542969.824219 1.089844 1.253907 1.640625.5625.722657 1.160156 1.464844 1.761718 2.214844.464844.570313.925782 1.144531 1.414063 1.730469.640625.769531 1.328125 1.5625 2.015625 2.355468.527344.613282 1.042968 1.214844 1.605468 1.84375.136719.152344.25.296876.390626.449219-1.089844 1.417969-2.269532 2.761719-3.527344 4.03125-1.972656 1.957031-4.117188 3.734375-6.40625 5.308594l-.210938-.234375c-.390625-.441406-.742187-.863281-1.113281-1.296875-.707031-.816406-1.410156-1.632813-2.058594-2.417969-.40625-.488281-.777343-.960937-1.164062-1.4375-.5625-.703125-1.121094-1.398437-1.644531-2.078125-.375-.484375-.734376-.960937-1.089844-1.4375-.488282-.644531-.960938-1.289062-1.417969-1.917969-.335937-.460937-.660156-.921874-.984375-1.378906-.445312-.632812-.878906-1.261718-1.300781-1.882812-.289063-.429688-.578125-.855469-.859375-1.277344-.429688-.644531-.84375-1.285156-1.253906-1.925781-.25-.386719-.507813-.777344-.75-1.164063-.441407-.695312-.871094-1.382812-1.296876-2.074218-.203124-.328126-.410156-.652344-.609374-.980469-.601563-.980469-1.203126-1.96875-1.804688-2.953125-8.183594-14.152344-18.410156-27.023438-30.351562-38.1875-11.511719-11.582032-24.675782-21.390625-39.066407-29.105469-13.488281-7.199219-25.816406-16.382813-36.578125-27.242187-11.191406-10.433594-20.761718-22.480469-28.390625-35.746094-.941406-1.546875-1.902343-3.109375-2.886719-4.695313-.210937-.335937-.414062-.667969-.628906-1.007812-1-1.59375-2.070312-3.230469-3.199218-4.902344-.234376-.351563-.476563-.703125-.71875-1.058594-1.179688-1.710937-2.445313-3.476562-3.835938-5.316406-.230469-.304687-.480469-.621094-.714844-.929687-1.503906-1.953126-3.117187-3.972657-4.945312-6.109376l-.050782-.0625c.296876-.320312.59375-.632812.894532-.933593zm30.515625 143.949219c-42.300781-42.300782-58.277344-98.796876-38.824219-132.84375.144531.179687.300781.363281.445312.539062 1.3125 1.613281 2.535157 3.175781 3.652344 4.679688.210938.28125.402344.554687.609375.835937 1.003907 1.378906 1.953125 2.726563 2.839844 4.042969.160156.234375.328125.476562.488281.710937.976563 1.46875 1.902344 2.910157 2.800782 4.34375.191406.3125.386718.621094.578124.933594.859376 1.386719 1.707032 2.769531 2.554688 4.164063 8.171875 14.148437 18.390625 27.003906 30.320312 38.164062 11.511719 11.582031 24.675782 21.390625 39.070313 29.105469 13.484375 7.199219 25.816406 16.382812 36.574219 27.242187 11.203125 10.441406 20.785156 22.5 28.425781 35.769532.9375 1.542968 1.894531 3.101562 2.878906 4.683593.226563.367188.457031.734375.691407 1.105469 1.019531 1.617188 2.097656 3.273438 3.25 4.976562.230468.34375.480468.695313.71875 1.042969 1.195312 1.734375 2.460937 3.507813 3.875 5.371094l.183593.25c1.4375 1.878906 3.0625 3.871094 4.796875 5.921875.222656.265625.390625.496094.617188.761719-34.640625 14.339843-87.382813-2.644531-126.546875-41.800781zm-59.242188 22.625c59.898438 0 110.671875 28.496093 120.289063 66.125-.234375-.027344-.480469-.050782-.714844-.078126-2.214844-.246093-4.324219-.519531-6.292969-.832031-.261719-.042969-.503906-.089843-.765625-.132812-1.808594-.296875-3.53125-.621094-5.195312-.960938-.332032-.070312-.671875-.132812-.996094-.203125-1.75-.375-3.441406-.765625-5.097656-1.171875-.4375-.109375-.875-.214843-1.308594-.328125-1.582031-.394531-3.152344-.796875-4.734375-1.207031-15.734375-4.464844-32.046875-6.582031-48.398437-6.285156-16.332032-.300781-32.621094 1.824219-48.332032 6.300781-14.703125 4.222656-29.957031 6.210938-45.253906 5.90625-15.300781.304688-30.5625-1.683594-45.273438-5.902344-1.511718-.394531-3.039062-.785156-4.589843-1.179687-.425781-.105469-.847657-.210938-1.277344-.316407-1.648437-.40625-3.34375-.808593-5.105469-1.191406-.277344-.0625-.570312-.117187-.851562-.179687-1.628906-.347657-3.332032-.675781-5.105469-.988281-.328125-.058594-.644531-.117188-.976563-.175782-1.957031-.332031-4.03125-.628906-6.214843-.902344-.222657-.027343-.40625-.066406-.628907-.089843 15.441407-32.972657 62.882813-56.207031 116.824219-56.207031zm-120.863281 68.039062.230469.027344c2.359375.242187 4.539062.535156 6.613281.851562.296875.042969.609375.085938.902344.132813 2 .320312 3.886718.671875 5.707031 1.046875.367187.078125.734375.152344 1.097656.230468 1.757813.375 3.460938.765626 5.125 1.175782.382813.09375.761719.191406 1.144531.285156 1.636719.410156 3.257813.828125 4.890626 1.253906 15.71875 4.476563 32.011718 6.597656 48.351562 6.296875 16.335938.300781 32.625-1.824219 48.332031-6.300781 14.707031-4.222656 29.957031-6.210938 45.253907-5.90625 15.320312-.300781 30.597656 1.683594 45.332031 5.894531 1.082031.28125 2.171875.5625 3.265625.84375.417968.105469.847656.207031 1.265625.3125.75.191407 1.503906.378907 2.273437.5625.449219.109375.910156.214844 1.363282.320313.761718.179687 1.527343.359375 2.3125.53125.484374.105468.980468.210937 1.476562.316406.785156.164062 1.582031.328125 2.394531.484375.523438.101563 1.054688.203125 1.59375.300781.839844.152344 1.703125.300782 2.582031.445313.546876.089843 1.09375.179687 1.65625.265625.949219.144531 1.9375.277344 2.9375.410156.542969.070312 1.070313.144531 1.628907.214844 1.167969.140625 2.394531.265625 3.636719.382812.449218.046875.871093.09375 1.332031.136719l.222656.019531v.425782c-.011719 3.914062-.476563 7.816406-1.382813 11.625l-.25-.027344c-2.316406-.242188-4.457031-.53125-6.5-.847656-.316406-.046876-.648437-.089844-.960937-.140626-1.96875-.316406-3.824219-.667968-5.617187-1.035156-.382813-.082031-.769532-.160156-1.148438-.242187-1.730469-.371094-3.410156-.757813-5.050781-1.160157-.398438-.097656-.792969-.199218-1.1875-.296874-1.613281-.40625-3.214844-.816407-4.828125-1.238282-15.71875-4.476562-32.011719-6.597656-48.351563-6.296875-16.332031-.300781-32.621093 1.824219-48.332031 6.300781-14.703125 4.222657-29.957031 6.210938-45.25 5.90625-15.320312.300782-30.597656-1.683593-45.328125-5.894531-1.105469-.289062-2.214844-.574219-3.335937-.859375-.332032-.085937-.675782-.167968-1.007813-.253906-.8125-.203125-1.625-.40625-2.453125-.609375-.460938-.109375-.9375-.21875-1.402344-.328125-.734375-.171875-1.472656-.34375-2.226562-.507812-.519532-.117188-1.050782-.230469-1.585938-.339844-.734375-.15625-1.488281-.308594-2.25-.457032-.570312-.113281-1.148437-.222656-1.738281-.328124-.769531-.140626-1.5625-.277344-2.363281-.40625-.621094-.105469-1.242188-.207032-1.882813-.304688-.828125-.125-1.691406-.242188-2.558593-.355469-.667969-.089843-1.324219-.183593-2.015626-.265625-.957031-.113281-1.964843-.214844-2.972656-.316406-.65625-.066406-1.285156-.140625-1.964844-.199219l-.15625-.015625c-.011718-.371094-.023437-.742187-.023437-1.105468.007813-3.6875.410156-7.359376 1.203125-10.960938zm0 0"/><path d="m69.941406 314.554688c-2.507812-1.296876-4.890625-2.660157-7.152344-4.085938-2.855468-1.789062-6.621093-.921875-8.410156 1.9375-1.777344 2.84375-.925781 6.59375 1.910156 8.390625 2.539063 1.601563 5.21875 3.132813 8.039063 4.597656 2.996094 1.550781 6.679687.378907 8.230469-2.613281 1.546875-2.992188.375-6.675781-2.617188-8.226562zm0 0"/><path d="m213.84375 304.617188c-19.074219 15.390624-48.078125 24.214843-79.574219 24.214843-15.917969.128907-31.757812-2.253906-46.9375-7.058593-3.203125-1.035157-6.644531.722656-7.683593 3.929687-1.035157 3.195313.710937 6.628906 3.90625 7.675781 16.398437 5.203125 33.511718 7.785156 50.714843 7.65625 34.234375 0 66.03125-9.808594 87.242188-26.917968 2.621093-2.117188 3.03125-5.960938.917969-8.582032-2.117188-2.625-5.960938-3.035156-8.585938-.917968zm0 0"/><path d="m174.523438 95.945312c-.671876-2.402343-1.246094-4.777343-1.714844-7.121093-.660156-3.304688-3.875-5.449219-7.179688-4.785157-3.304687.660157-5.449218 3.875-4.789062 7.179688.527344 2.632812 1.171875 5.304688 1.929687 8.015625.910157 3.246094 4.277344 5.140625 7.523438 4.234375 3.242187-.910156 5.136719-4.277344 4.230469-7.523438zm0 0"/><path d="m294.191406 201.34375c.210938-3.363281-2.347656-6.257812-5.710937-6.464844h-.003907c-25.097656-1.546875-54.871093-16.691406-77.703124-39.527344-11.492188-11.351562-21.058594-24.507812-28.316407-38.941406-1.503906-3.015625-5.167969-4.242187-8.183593-2.738281-3.003907 1.496094-4.234376 5.144531-2.753907 8.15625 7.847657 15.625 18.191407 29.863281 30.625 42.15625 25.222657 25.226563 57.214844 41.328125 85.578125 43.074219.128906.011718.257813.011718.382813.011718 3.222656 0 5.886719-2.507812 6.085937-5.726562zm0 0"/></svg>